HIERARCHY
ROOT Hips
{
	OFFSET 0.000000 0.000000 0.000000
	CHANNELS 6 Xposition Yposition Zposition Zrotation Yrotation Xrotation 
	JOINT LHipJoint
	{
		OFFSET 0.000000 0.000000 0.000000
		CHANNELS 3 Zrotation Yrotation Xrotation
		JOINT LeftUpLeg
		{
			OFFSET 1.363060 -1.794630 0.839290
			CHANNELS 3 Zrotation Yrotation Xrotation
			JOINT LeftLeg
			{
				OFFSET 2.448110 -6.726130 0.000000
				CHANNELS 3 Zrotation Yrotation Xrotation
				JOINT LeftFoot
				{
					OFFSET 2.562200 -7.039590 0.000000
					CHANNELS 3 Zrotation Yrotation Xrotation
					JOINT LeftToeBase
					{
						OFFSET 0.157640 -0.433110 2.322550
						CHANNELS 3 Zrotation Yrotation Xrotation
						End Site
						{
							OFFSET 0.000000 0.000000 0.000000
						}
					}
				}
			}
		}
	}
	JOINT RHipJoint
	{
		OFFSET 0.000000 0.000000 0.000000
		CHANNELS 3 Zrotation Yrotation Xrotation
		JOINT RightUpLeg
		{
			OFFSET -1.305520 -1.794630 0.839290
			CHANNELS 3 Zrotation Yrotation Xrotation
			JOINT RightLeg
			{
				OFFSET -2.542530 -6.985550 0.000000
				CHANNELS 3 Zrotation Yrotation Xrotation
				JOINT RightFoot
				{
					OFFSET -2.568260 -7.056230 0.000000
					CHANNELS 3 Zrotation Yrotation Xrotation
					JOINT RightToeBase
					{
						OFFSET -0.164730 -0.452590 2.363150
						CHANNELS 3 Zrotation Yrotation Xrotation
						End Site
						{
							OFFSET 0.000000 0.000000 0.000000
						}
					}
				}
			}
		}
	}
	JOINT LowerBack
	{
		OFFSET 0.000000 0.000000 0.000000
		CHANNELS 3 Zrotation Yrotation Xrotation
		JOINT Spine
		{
			OFFSET 0.028270 2.035590 -0.193380
			CHANNELS 3 Zrotation Yrotation Xrotation
			JOINT Spine1
			{
				OFFSET 0.056720 2.048850 -0.042750
				CHANNELS 3 Zrotation Yrotation Xrotation
				JOINT Neck
				{
					OFFSET 0.000000 0.000000 0.000000
					CHANNELS 3 Zrotation Yrotation Xrotation
					JOINT Neck1
					{
						OFFSET -0.054170 1.746240 0.172020
						CHANNELS 3 Zrotation Yrotation Xrotation
						JOINT Head
						{
							OFFSET 0.104070 1.761360 -0.123970
							CHANNELS 3 Zrotation Yrotation Xrotation
							End Site
							{
								OFFSET 0.000000 0.000000 0.000000
							}
						}
					}
				}
				JOINT LeftShoulder
				{
					OFFSET 0.000000 0.000000 0.000000
					CHANNELS 3 Zrotation Yrotation Xrotation
					JOINT LeftArm
					{
						OFFSET 3.362410 1.200890 -0.311210
						CHANNELS 3 Zrotation Yrotation Xrotation
						JOINT LeftForeArm
						{
							OFFSET 4.983000 -0.000000 -0.000000
							CHANNELS 3 Zrotation Yrotation Xrotation
							JOINT LeftHand
							{
								OFFSET 3.483560 -0.000000 -0.000000
								CHANNELS 3 Zrotation Yrotation Xrotation
								JOINT LeftFingerBase
								{
									OFFSET 0.000000 0.000000 0.000000
									CHANNELS 3 Zrotation Yrotation Xrotation
									JOINT LeftHandIndex1
									{
										OFFSET 0.715260 -0.000000 -0.000000
										CHANNELS 3 Zrotation Yrotation Xrotation
										End Site
										{
											OFFSET 0.000000 0.000000 0.000000
										}
									}
								}
								JOINT LThumb
								{
									OFFSET 0.000000 0.000000 0.000000
									CHANNELS 3 Zrotation Yrotation Xrotation
									End Site
									{
										OFFSET 0.000000 0.000000 0.000000
									}
								}
							}
						}
					}
				}
				JOINT RightShoulder
				{
					OFFSET 0.000000 0.000000 0.000000
					CHANNELS 3 Zrotation Yrotation Xrotation
					JOINT RightArm
					{
						OFFSET -3.136600 1.374050 -0.404650
						CHANNELS 3 Zrotation Yrotation Xrotation
						JOINT RightForeArm
						{
							OFFSET -5.241900 -0.000000 -0.000000
							CHANNELS 3 Zrotation Yrotation Xrotation
							JOINT RightHand
							{
								OFFSET -3.444170 -0.000000 -0.000000
								CHANNELS 3 Zrotation Yrotation Xrotation
								JOINT RightFingerBase
								{
									OFFSET 0.000000 0.000000 0.000000
									CHANNELS 3 Zrotation Yrotation Xrotation
									JOINT RightHandIndex1
									{
										OFFSET -0.622530 -0.000000 -0.000000
										CHANNELS 3 Zrotation Yrotation Xrotation
										End Site
										{
											OFFSET 0.000000 0.000000 0.000000
										}
									}
								}
								JOINT RThumb
								{
									OFFSET 0.000000 0.000000 0.000000
									CHANNELS 3 Zrotation Yrotation Xrotation
									End Site
									{
										OFFSET 0.000000 0.000000 0.000000
									}
								}
							}
						}
					}
				}
			}
		}
	}
}
MOTION
Frames: 12
Frame Time: 0.008333
29.276415 17.012615 -27.748370 0.177728 6.602257 12.333934 6.887687 3.627556 0.360301 -22.862848 -18.639115 -16.690666 0.495011 10.794612 32.552374 -0.725583 10.234564 -17.509897 0.928300 -6.138000 -17.185300 -9.799891 -3.787877 1.237999 9.810721 35.910993 -27.711545 -0.239792 -12.037626 30.728747 1.120126 -17.998142 -22.356714 -0.396600 -4.043600 11.199300 5.666702 0.470972 0.714034 1.765814 0.535361 -5.864148 -1.211545 0.355889 -10.755796 -4.573718 1.675755 -18.140633 5.212351 2.928500 10.970310 1.814100 1.523700 6.421900 3.056571 -13.330979 0.795418 -96.826774 -0.770167 50.412601 53.950030 -47.903503 -29.090371 -0.314557 -0.660099 54.616793 -31.834676 48.069476 -25.267200 -7.125000 0.000000 0.000000 -83.970300 59.740200 -47.640700 -3.008110 14.138858 3.179408 91.410536 1.985952 43.480867 -60.576658 49.214714 -29.651604 -0.768105 -0.079519 10.912454 -6.577264 17.353163 -1.771700 7.125000 0.000000 0.000000 14.529500 -12.695200 11.361100 
29.271877 17.020179 -27.744804 0.256733 5.952890 12.539656 6.870151 3.627426 0.363331 -22.960771 -18.363771 -16.720106 0.415864 10.700009 32.255484 -0.786565 10.508124 -17.517937 0.907400 -6.070100 -16.987900 -9.815501 -3.770566 1.242800 9.543501 35.966895 -28.142911 -0.214615 -12.048555 30.609738 1.091436 -17.739085 -22.121468 -0.446000 -4.284700 11.878900 5.576147 0.453366 0.768749 1.773456 0.512497 -5.902420 -1.160849 0.348137 -10.890994 -4.484883 1.720613 -18.099269 5.204361 2.969714 10.921968 1.790100 1.547800 6.391400 3.051293 -13.337318 0.789128 -96.969419 -0.882661 48.798582 53.560399 -47.765849 -28.681933 -0.289730 -0.703853 54.806535 -32.876585 44.650477 -24.959200 -7.125000 0.000000 0.000000 -79.625700 58.221100 -40.572400 -2.998738 14.152411 3.189018 91.315239 1.769990 43.531289 -60.674144 49.223416 -29.779419 -0.790068 -0.074697 10.838531 -6.969107 18.201592 -1.972500 7.125000 0.000000 0.000000 14.264100 -11.844300 11.400400 
29.262151 17.025258 -27.739726 0.258820 5.118509 12.759153 6.846534 3.623075 0.358562 -22.966131 -18.042073 -16.755450 0.338999 10.612811 31.983080 -0.863117 10.887477 -17.617099 0.863500 -5.925500 -16.568500 -9.841066 -3.749656 1.253203 9.291440 36.338922 -28.624121 -0.189831 -12.069881 30.510932 0.953192 -17.204439 -22.397636 -0.657700 -5.187200 14.443300 5.441337 0.505287 0.751338 1.802328 0.565384 -5.909671 -0.994988 0.394529 -10.903887 -4.547609 1.800149 -18.091822 5.287502 3.078682 10.829628 1.845300 1.604600 6.332900 3.049007 -13.341244 0.788985 -97.026836 -0.789696 49.006815 53.213404 -47.628623 -28.382508 -0.286948 -0.635441 55.560735 -29.386412 44.698904 -22.066300 -7.125000 0.000000 0.000000 -77.165500 59.164000 -39.899500 -2.992408 14.149208 3.196003 91.286280 1.580621 43.455935 -60.848644 49.264579 -29.972833 -0.804127 -0.091073 10.879663 -7.847828 18.478426 -2.286100 7.125000 0.000000 0.000000 13.699000 -11.489800 11.023500 
29.250373 17.030769 -27.734431 0.368644 4.262653 12.913470 6.827087 3.624656 0.364382 -23.113289 -17.723847 -16.739248 0.286771 10.545804 31.800316 -0.880046 11.048363 -17.811207 0.782300 -5.646600 -15.762500 -9.861467 -3.737130 1.264198 8.994955 36.662812 -29.014565 -0.164388 -12.073029 30.383238 0.945090 -17.144091 -22.323254 -0.708400 -5.379400 14.993800 5.267073 0.466336 0.842890 1.818191 0.507156 -5.946012 -0.854174 0.383748 -11.061654 -4.667449 1.960808 -17.987447 5.475132 3.295021 10.813009 1.973800 1.718000 6.289600 3.037327 -13.344519 0.787618 -97.177413 -0.468594 48.534975 53.374095 -47.696905 -28.518577 -0.279390 -0.629508 55.601153 -28.985266 44.637900 -21.718100 -7.125000 0.000000 0.000000 -76.773700 59.241500 -39.670000 -2.992622 14.148605 3.192960 91.455614 1.317047 43.637595 -60.804142 49.261609 -30.017208 -0.830953 -0.130768 11.605838 -9.992770 18.675538 -3.024200 7.125000 0.000000 0.000000 12.326100 -11.064800 9.970900 
29.239459 17.035739 -27.728488 0.469913 3.441191 13.100306 6.814911 3.622775 0.370023 -23.250180 -17.364246 -16.816295 0.243218 10.499784 31.659887 -0.924308 11.294408 -17.916084 0.777600 -5.630200 -15.715200 -9.889679 -3.727721 1.279306 8.714154 36.873475 -29.460967 -0.137077 -12.073370 30.230809 1.028121 -17.303096 -21.745081 -0.644700 -5.136700 14.298800 5.120173 0.415515 0.851119 1.838921 0.426478 -6.015258 -0.718284 0.362370 -11.319045 -4.707204 2.163734 -17.556257 5.639736 3.535275 10.796578 2.067600 1.844400 6.176200 3.029021 -13.335055 0.789273 -97.398390 0.017681 47.679064 54.026715 -47.956776 -29.056029 -0.243036 -0.686135 54.601307 -30.523955 42.913027 -22.376500 -7.125000 0.000000 0.000000 -75.430300 58.089800 -36.434400 -2.991049 14.138472 3.189572 91.578792 0.910523 44.194864 -60.517376 49.199475 -29.928981 -0.875160 -0.202404 12.937839 -14.049595 18.785379 -4.439400 7.125000 0.000000 0.000000 9.722600 -10.455100 7.914700 
29.232328 17.038117 -27.722004 0.384921 2.787072 13.408296 6.811833 3.606962 0.358592 -23.138565 -17.161067 -17.031202 0.185655 10.463135 31.481344 -1.050702 11.836007 -17.887331 0.838400 -5.840800 -16.323100 -9.928382 -3.710113 1.291692 8.554646 37.041805 -30.047167 -0.098529 -12.089527 30.082122 1.122516 -17.641335 -21.321978 -0.542000 -4.716900 13.102800 5.172822 0.446340 0.657986 1.859950 0.448909 -6.046747 -0.687353 0.374504 -11.344630 -4.607088 2.262463 -17.343759 5.678943 3.629723 10.675491 2.064800 1.899000 6.060200 3.030363 -13.325591 0.791955 -97.429764 0.163845 47.594116 54.087070 -47.987500 -29.108124 -0.239203 -0.697039 54.153990 -30.751926 42.829665 -22.534100 -7.125000 0.000000 0.000000 -75.488900 57.996000 -36.318600 -2.987606 14.128206 3.197140 91.617146 0.774851 43.879215 -60.448221 49.171498 -29.831447 -0.869208 -0.166656 12.902970 -12.687734 19.180584 -4.038500 7.125000 0.000000 0.000000 10.608600 -10.241500 8.708000 
29.226817 17.042331 -27.720707 0.291680 2.351036 13.653211 6.814885 3.596050 0.337561 -23.014235 -17.107784 -17.167050 0.133066 10.421310 31.294047 -1.160208 12.255644 -17.761007 0.899700 -6.045100 -16.915200 -9.941065 -3.685682 1.279404 8.478397 37.048241 -30.467737 -0.052827 -12.092944 29.948502 1.091211 -17.663454 -21.647938 -0.541500 -4.714800 13.096900 5.328528 0.487557 0.702615 1.829286 0.521379 -5.964296 -0.876560 0.378116 -10.961309 -4.485020 2.128564 -18.496462 5.722774 3.486950 10.668795 2.086500 1.843700 6.309100 3.030522 -13.349299 0.796924 -97.046552 -0.469289 48.039087 53.412574 -47.710052 -28.527610 -0.277256 -0.645197 55.275067 -29.686709 44.131458 -22.117400 -7.125000 0.000000 0.000000 -76.555500 58.845900 -38.784600 -3.000708 14.169159 3.189288 91.615599 1.389188 43.481266 -59.663069 48.956301 -29.199059 -0.890032 -0.181238 14.293787 -14.115521 19.095460 -4.528500 7.125000 0.000000 0.000000 9.693400 -10.133200 7.954500 
29.217416 17.049246 -27.717682 0.342664 1.785814 13.600911 6.791128 3.618848 0.346868 -23.126256 -16.814050 -16.985413 0.093976 10.344970 31.129832 -1.218302 12.497066 -17.745483 0.938200 -6.169600 -17.277300 -9.928184 -3.682638 1.276712 8.451363 37.112711 -30.490592 -0.018726 -12.062219 29.846151 0.923315 -17.254838 -22.590373 -0.679500 -5.270700 14.682200 5.307856 0.433905 1.015938 1.817350 0.478304 -5.937835 -0.910125 0.349171 -11.043281 -4.441128 2.142503 -18.535469 5.788076 3.488409 10.522855 2.112000 1.853300 6.245900 3.022554 -13.365574 0.807272 -97.073342 -0.659771 47.111404 54.303810 -48.054656 -29.276114 -0.254314 -0.781532 53.082110 -35.558837 43.186282 -26.677500 -7.125000 0.000000 0.000000 -79.484900 56.949300 -38.073100 -3.004099 14.183494 3.198087 91.627894 1.420849 43.608425 -59.550803 48.921538 -29.121157 -0.897533 -0.186604 14.277594 -14.505578 19.231925 -4.697300 7.125000 0.000000 0.000000 9.449800 -9.944500 7.785300 
29.207474 17.054109 -27.703202 0.349292 0.951045 13.735968 6.771266 3.632970 0.346035 -23.191539 -16.414070 -16.916750 0.034291 10.262431 30.917567 -1.269298 12.793757 -17.954712 0.898900 -6.042400 -16.907400 -9.956145 -3.685424 1.283425 8.354978 37.337833 -30.821535 -0.008344 -12.068396 29.759116 1.067338 -17.613501 -21.729855 -0.511200 -4.582900 12.722700 5.271971 0.484965 0.965376 1.813848 0.535495 -5.902483 -0.894536 0.379508 -10.891134 -4.442953 2.172187 -18.725913 5.852843 3.531471 10.483407 2.151000 1.880800 6.257400 3.017406 -13.357174 0.809509 -97.016777 -0.385458 48.243079 53.033808 -47.552698 -28.214607 -0.281476 -0.559100 56.399500 -26.007403 45.038511 -19.428600 -7.125000 0.000000 0.000000 -75.159800 60.217500 -39.837200 -3.004482 14.174672 3.202373 91.564942 1.482912 43.740429 -60.861902 49.272806 -30.149394 -0.860819 -0.132237 11.853950 -11.168728 19.781142 -3.602100 7.125000 0.000000 0.000000 11.590700 -9.849100 9.642000 
29.200018 17.057351 -27.690992 0.394456 0.164196 14.066064 6.759986 3.621044 0.338592 -23.248402 -16.179504 -17.025255 -0.036501 10.189768 30.668759 -1.314895 13.057180 -18.129786 0.808900 -5.739700 -16.030900 -9.994121 -3.671990 1.289364 8.064142 37.494402 -31.449450 0.006934 -12.113721 29.690412 1.163171 -17.884306 -21.139461 -0.373200 -3.923900 10.862700 5.209185 0.550323 0.743525 1.823094 0.593921 -5.906126 -0.811370 0.417801 -10.777800 -4.549655 2.194773 -18.795465 5.909541 3.579840 10.395103 2.202100 1.904700 6.214500 3.020695 -13.360026 0.807723 -97.170359 -0.485923 47.536490 53.727113 -47.836697 -28.793474 -0.271486 -0.668843 54.835650 -30.661437 44.117043 -22.915100 -7.125000 0.000000 0.000000 -77.248100 58.581100 -38.958800 -3.007354 14.161354 3.209990 91.418389 1.484570 43.581552 -61.354342 49.382640 -30.507033 -0.839498 -0.074401 10.780122 -8.529070 20.324072 -2.731000 7.125000 0.000000 0.000000 13.263300 -9.638100 11.167000 
29.191266 17.060484 -27.685697 0.479445 -0.456672 14.248199 6.743141 3.617048 0.334682 -23.354519 -16.001843 -17.017166 -0.092723 10.114169 30.445236 -1.330516 13.150786 -18.210102 0.697300 -5.337700 -14.874300 -10.020704 -3.663643 1.287687 7.821263 37.627376 -31.879383 0.013615 -12.152451 29.668292 1.173397 -17.904361 -20.998589 -0.347900 -3.789700 10.485800 5.137706 0.472415 0.753984 1.863763 0.476842 -5.874709 -0.654374 0.376446 -10.663813 -4.667153 2.260864 -18.977386 5.943276 3.696256 10.201520 2.247400 1.960200 6.139800 3.026560 -13.369910 0.816702 -97.219004 -0.527900 47.416686 53.653970 -47.808841 -28.731144 -0.272609 -0.634918 55.565322 -29.408196 44.314398 -21.951000 -7.125000 0.000000 0.000000 -76.601100 58.991000 -39.078800 -2.998752 14.155294 3.218374 91.137804 1.732252 43.788975 -61.508955 49.405915 -30.650392 -0.840727 -0.088302 10.350543 -8.883754 20.216870 -2.844800 7.125000 0.000000 0.000000 13.040000 -9.703800 10.950600 
29.179487 17.062754 -27.680942 0.558478 -0.946245 14.373978 6.727641 3.616852 0.336064 -23.436350 -15.922834 -16.961713 -0.147139 10.036582 30.222125 -1.347895 13.247181 -18.277206 0.580100 -4.877200 -13.558600 -10.030172 -3.650842 1.282986 7.680508 37.580363 -32.206801 0.020347 -12.188308 29.673278 1.040840 -17.364462 -21.335411 -0.477700 -4.432300 12.296200 5.099988 0.360400 0.809958 1.878865 0.328607 -5.857211 -0.640232 0.301789 -10.597084 -4.449507 2.309579 -19.237662 5.819179 3.746225 10.151101 2.145300 1.986200 6.173700 3.040331 -13.363384 0.827477 -97.112804 -0.484804 47.183643 53.668623 -47.811244 -28.732317 -0.270515 -0.616771 55.772851 -28.721093 44.260389 -21.369700 -7.125000 0.000000 0.000000 -76.008600 59.149700 -38.811100 -2.985190 14.171495 3.218655 91.063531 1.880117 44.028566 -61.276682 49.348885 -30.554169 -0.870685 -0.146880 10.692720 -11.756033 20.269282 -3.895200 7.125000 0.000000 0.000000 11.230300 -9.304600 9.455200 
